<svg width="220" height="30" xmlns="http://www.w3.org/2000/svg"><path d="M6.344 6.964L4.669 2.109 2.978 6.964h3.366zM2.466 8.468l-.822 2.327c-.046.186-.186.217-.295.217H.264c-.14 0-.264-.093-.264-.248 0-.078.047-.186.093-.295L3.691.449c.047-.139.171-.294.373-.294h1.272c.201 0 .31.155.356.295l3.614 10.003c.016.063.093.233.093.31 0 .156-.124.249-.263.249H7.988c-.186 0-.28-.093-.31-.202l-.822-2.342h-4.39zm13.19 2.544H12.26a.351.351 0 0 1-.357-.357V.527c0-.201.155-.372.357-.372h3.397c2.373 0 4.172 1.722 4.172 4.374v2.11c0 2.651-1.8 4.373-4.172 4.373zm0-9.275h-2.078v7.708h2.079c1.35 0 2.466-1.008 2.466-2.807V4.544c0-1.799-1.117-2.807-2.466-2.807zM27.328 7.6h-2.404v2.931c0 .264-.217.48-.48.48h-1.288a.483.483 0 0 1-.481-.48V.636c0-.264.217-.48.48-.48h4.173c1.908 0 3.35 1.24 3.35 3.411v.465c0 2.172-1.442 3.568-3.35 3.568zm-2.404-5.336V5.49h2.218c.729 0 1.287-.527 1.287-1.504v-.217c0-.977-.558-1.505-1.287-1.505h-2.218zM37.68 6.855l-1.318-4.079-1.38 4.08h2.698zm-3.381 2.016l-.62 1.862a.377.377 0 0 1-.373.279h-1.473c-.202 0-.357-.14-.357-.341 0-.093.047-.202.078-.295l3.505-9.88a.5.5 0 0 1 .465-.34h1.737a.5.5 0 0 1 .466.34l3.412 9.756c.016.046.124.31.124.419 0 .201-.155.34-.357.34h-1.55c-.249 0-.373-.139-.404-.263l-.62-1.877h-4.033zm11.407-6.607V5.15h2.218c.729 0 1.287-.372 1.287-1.318v-.217c0-.977-.558-1.35-1.287-1.35h-2.218zm0 4.994v3.273c0 .264-.217.48-.481.48h-1.287a.483.483 0 0 1-.481-.48V.636c0-.264.217-.48.48-.48h4.173c1.908 0 3.35 1.085 3.35 3.256v.465c0 1.443-.543 2.497-1.923 2.978l1.768 3.381c.078.155.155.28.155.435 0 .201-.14.34-.341.34h-1.567c-.263 0-.418-.185-.511-.371l-1.676-3.382h-1.66zm7.56-5.474V.636c0-.264.217-.48.48-.48h7.4c.263 0 .48.216.48.48v1.148c0 .263-.217.48-.48.48H58.57v8.267c0 .264-.218.48-.481.48H56.8a.483.483 0 0 1-.48-.48V2.264h-2.575a.483.483 0 0 1-.481-.48zm17.347 9.228c-.17 0-.403.03-.744-.559l-3.862-6.84v6.918c0 .264-.217.48-.481.48H64.3a.483.483 0 0 1-.481-.48V.636c0-.264.217-.48.48-.48h1.691c.264 0 .481.232.559.371l3.598 6.468V.635c0-.263.217-.48.48-.48h1.226c.264 0 .481.217.481.48v9.896c0 .264-.217.48-.48.48h-1.242zM82.16.636v1.148c0 .263-.217.48-.481.48h-4.126v2.187h3.195c.264 0 .481.217.481.481V6.08c0 .263-.217.48-.48.48h-3.196v2.343h4.126a.47.47 0 0 1 .48.465v1.163c0 .264-.216.48-.48.48h-5.894a.483.483 0 0 1-.48-.48V.636c0-.264.216-.48.48-.48h5.894c.264 0 .48.216.48.48zm4.83 1.628V5.15h2.218c.73 0 1.288-.372 1.288-1.318v-.217c0-.977-.559-1.35-1.288-1.35H86.99zm0 4.994v3.273c0 .264-.217.48-.48.48h-1.29a.483.483 0 0 1-.48-.48V.636c0-.264.216-.48.48-.48h4.172c1.908 0 3.35 1.085 3.35 3.256v.465c0 1.443-.542 2.497-1.923 2.978l1.768 3.381c.078.155.156.28.156.435 0 .201-.14.34-.342.34h-1.566c-.264 0-.419-.185-.512-.371l-1.675-3.382h-1.66zm15.347-3.784h-1.272c-.264 0-.419-.14-.497-.434-.155-.512-.48-1.086-1.489-1.086-1.008 0-1.628.217-1.628 1.07 0 1.986 5.537.652 5.537 4.932 0 2.373-1.97 3.21-3.955 3.21-2.807 0-4.048-1.876-4.048-3.334 0-.263.217-.48.48-.48h1.257c.264 0 .403.232.45.418.062.295.201 1.443 1.86 1.443 1.21 0 1.707-.326 1.707-1.257 0-2.155-5.537-.806-5.537-4.932C95.2 1.21 96.44 0 99.109 0c2.42 0 3.707 1.442 3.707 2.993a.483.483 0 0 1-.48.481zM.862 19.702v4.777h2.931c1.334 0 2.59-.73 2.59-2.234v-.263c0-1.753-1.256-2.28-2.59-2.28H.862zm0 5.49v4.482c0 .109-.078.17-.186.17H.273c-.109 0-.171-.061-.171-.17v-10.5c0-.108.062-.186.17-.186h3.521c2.032 0 3.35 1.04 3.35 3.056v.14c0 1.348-.806 2.512-2.481 2.915l2.404 4.498c.047.077.047.108.047.14a.106.106 0 0 1-.109.108h-.59c-.108 0-.154-.062-.201-.155L3.84 25.192H.862zm16.432-6.018v.357c0 .109-.077.17-.186.17h-5.692v4.297h4.606a.18.18 0 0 1 .186.186v.357c0 .108-.077.17-.186.17h-4.606v4.42h5.692a.18.18 0 0 1 .186.187v.356c0 .109-.077.17-.186.17h-6.282c-.108 0-.17-.061-.17-.17v-10.5c0-.108.062-.186.17-.186h6.282a.18.18 0 0 1 .186.186zm8.91 6.762l-2.234-6.064-2.171 6.064h4.405zm-4.684.714l-1.102 3.07c-.046.11-.108.125-.17.125h-.497a.106.106 0 0 1-.108-.109c0-.062.046-.17.108-.325L23.49 19.19c.047-.124.109-.202.218-.202h.558c.109 0 .155.078.202.186l3.893 10.407a.505.505 0 0 1 .046.155.106.106 0 0 1-.108.109H27.8c-.108 0-.155-.047-.186-.124l-1.132-3.071H21.52zm16.727 2.668v.356c0 .109-.078.17-.187.17h-6.436c-.109 0-.171-.061-.171-.17v-10.5c0-.108.062-.186.17-.186h.404a.18.18 0 0 1 .186.186v9.957h5.847a.18.18 0 0 1 .187.187zm14.36-10.144v.357c0 .109-.078.17-.186.17h-5.692v4.297h4.606a.18.18 0 0 1 .186.186v.357c0 .108-.077.17-.186.17H46.73v4.42h5.692a.18.18 0 0 1 .186.187v.356c0 .109-.078.17-.186.17H46.14c-.108 0-.17-.061-.17-.17v-10.5c0-.108.062-.186.17-.186h6.282a.18.18 0 0 1 .186.186zm9.639 2.59h-.404c-.108 0-.17-.062-.17-.17-.031-1.101-.528-2.047-2.637-2.047-1.567 0-2.699.434-2.699 2.078 0 3.583 6.406 1.411 6.406 5.428 0 2.172-1.892 2.947-3.66 2.947-2.979 0-3.894-2.11-3.894-3.32 0-.108.062-.185.171-.185h.434a.18.18 0 0 1 .186.186c.016.837.59 2.606 3.118 2.606 1.551 0 2.885-.605 2.885-2.234 0-3.164-6.406-1.101-6.406-5.428 0-2.063 1.582-2.792 3.459-2.792 2.9 0 3.397 1.784 3.397 2.76 0 .11-.078.171-.186.171zm2.69-2.233v-.357c0-.108.062-.186.17-.186h7.817a.18.18 0 0 1 .187.186v.357c0 .109-.078.17-.187.17h-3.52v9.973c0 .109-.078.17-.187.17h-.403c-.108 0-.17-.061-.17-.17v-9.972h-3.537c-.108 0-.17-.062-.17-.171zm15.3 6.405l-2.234-6.064-2.171 6.064h4.404zm-4.685.714l-1.1 3.07c-.047.11-.11.125-.172.125h-.496a.106.106 0 0 1-.108-.109c0-.062.046-.17.108-.325l3.738-10.221c.047-.124.109-.202.217-.202h.559c.108 0 .155.078.201.186l3.893 10.407a.505.505 0 0 1 .047.155.106.106 0 0 1-.109.109h-.496c-.109 0-.155-.047-.186-.124l-1.132-3.071H75.55zm7.452-7.119v-.357c0-.108.062-.186.17-.186h7.818a.18.18 0 0 1 .186.186v.357c0 .109-.078.17-.186.17H87.47v9.973c0 .109-.078.17-.186.17h-.403c-.109 0-.171-.061-.171-.17v-9.972h-3.536c-.109 0-.171-.062-.171-.171zm17.782-.357v.357c0 .109-.078.17-.187.17h-5.692v4.297h4.607a.18.18 0 0 1 .186.186v.357c0 .108-.078.17-.186.17h-4.607v4.42h5.692a.18.18 0 0 1 .187.187v.356c0 .109-.078.17-.187.17h-6.281c-.109 0-.17-.061-.17-.17v-10.5c0-.108.061-.186.17-.186h6.281a.18.18 0 0 1 .187.186zm14.686 7.104h.527c.047 0 .109.03.109.124-.093 1.954-1.644 3.598-3.8 3.598-2.156 0-3.878-1.597-3.878-4.11v-2.947c0-2.543 1.69-4.11 3.862-4.11 2.156 0 3.536 1.489 3.816 3.381.015.155-.062.186-.17.186h-.482c-.062 0-.108-.03-.124-.17-.232-1.474-1.35-2.683-3.04-2.683-1.706 0-3.086 1.256-3.086 3.396v2.947c0 2.125 1.395 3.397 3.102 3.397 1.675 0 2.838-1.164 3.055-2.916a.109.109 0 0 1 .109-.093zm3.837-.388v-2.931c0-2.528 1.691-4.126 3.863-4.126 2.156 0 3.862 1.598 3.862 4.126v2.931c0 2.513-1.691 4.11-3.847 4.11-2.156 0-3.878-1.597-3.878-4.11zm.776-2.916v2.916c0 2.125 1.396 3.397 3.102 3.397 1.675 0 3.071-1.272 3.071-3.397v-2.916c0-2.14-1.396-3.427-3.086-3.427-1.707 0-3.087 1.287-3.087 3.427zm11.376 6.7c0 .109-.078.17-.186.17h-.404c-.108 0-.17-.061-.17-.17v-10.5c0-.108.062-.186.17-.186h.42c.123 0 .154.078.2.155l5.988 9.15v-9.119c0-.108.062-.186.17-.186h.404a.18.18 0 0 1 .186.186v10.5c0 .109-.078.17-.186.17h-.248c-.094 0-.187-.03-.295-.2l-6.05-9.244v9.274zm17.27-7.91h-.404c-.108 0-.17-.062-.17-.17-.031-1.101-.528-2.047-2.637-2.047-1.567 0-2.699.434-2.699 2.078 0 3.583 6.406 1.411 6.406 5.428 0 2.172-1.892 2.947-3.66 2.947-2.979 0-3.894-2.11-3.894-3.32 0-.108.062-.185.17-.185h.435a.18.18 0 0 1 .186.186c.016.837.59 2.606 3.118 2.606 1.551 0 2.885-.605 2.885-2.234 0-3.164-6.406-1.101-6.406-5.428 0-2.063 1.582-2.792 3.459-2.792 2.9 0 3.397 1.784 3.397 2.76 0 .11-.078.171-.186.171zm10.6-2.776h.403a.18.18 0 0 1 .186.186v6.716c0 2.513-1.535 4.11-3.691 4.11-2.156 0-3.723-1.597-3.723-4.11v-6.716c0-.108.062-.186.17-.186h.404a.18.18 0 0 1 .186.186v6.716c0 2.125 1.241 3.397 2.963 3.397 1.69 0 2.931-1.272 2.931-3.397v-6.716c0-.108.062-.186.17-.186zm11.283 10.33v.356c0 .109-.078.17-.187.17h-6.436c-.109 0-.171-.061-.171-.17v-10.5c0-.108.062-.186.17-.186h.404a.18.18 0 0 1 .186.186v9.957h5.847a.18.18 0 0 1 .187.187zm.41-9.787v-.357c0-.108.062-.186.17-.186h7.817a.18.18 0 0 1 .186.186v.357c0 .109-.077.17-.186.17h-3.52v9.973c0 .109-.078.17-.187.17h-.403c-.108 0-.17-.061-.17-.17v-9.972h-3.537c-.108 0-.17-.062-.17-.171zm15.3 6.405l-2.234-6.064-2.172 6.064h4.405zm-4.685.714l-1.101 3.07c-.047.11-.109.125-.17.125h-.497a.106.106 0 0 1-.108-.109c0-.062.046-.17.108-.325l3.738-10.221c.047-.124.109-.202.217-.202h.559c.108 0 .155.078.201.186l3.893 10.407a.505.505 0 0 1 .047.155.106.106 0 0 1-.109.109h-.496c-.109 0-.155-.047-.186-.124l-1.132-3.071h-4.964zm10.694 3.024c0 .109-.078.17-.187.17h-.403c-.108 0-.17-.061-.17-.17v-10.5c0-.108.062-.186.17-.186h.419c.124 0 .155.078.202.155l5.987 9.15v-9.119c0-.108.062-.186.17-.186h.404a.18.18 0 0 1 .186.186v10.5c0 .109-.078.17-.186.17h-.249c-.093 0-.186-.03-.294-.2l-6.05-9.244v9.274zm9.747-10.143v-.357c0-.108.062-.186.17-.186h7.818a.18.18 0 0 1 .186.186v.357c0 .109-.078.17-.186.17h-3.521v9.973c0 .109-.078.17-.186.17h-.404c-.108 0-.17-.061-.17-.17v-9.972h-3.537c-.108 0-.17-.062-.17-.171zm17.425 2.233h-.404c-.108 0-.17-.062-.17-.17-.031-1.101-.528-2.047-2.637-2.047-1.567 0-2.699.434-2.699 2.078 0 3.583 6.406 1.411 6.406 5.428 0 2.172-1.892 2.947-3.66 2.947-2.978 0-3.894-2.11-3.894-3.32 0-.108.062-.185.171-.185h.434a.18.18 0 0 1 .186.186c.016.837.59 2.606 3.118 2.606 1.551 0 2.885-.605 2.885-2.234 0-3.164-6.406-1.101-6.406-5.428 0-2.063 1.582-2.792 3.459-2.792 2.9 0 3.397 1.784 3.397 2.76 0 .11-.078.171-.186.171z" fill-rule="evenodd"/></svg>